
      <svg data-logo="logo" xmlns="http://www.w3.org/2000/svg" viewBox="0 0 246 42">
        <g id="logogram" transform="translate(0, 1) rotate(0) "><path d="M33.724 36.5809C37.7426 32.5622 40.0003 27.1118 40.0003 21.4286C40.0003 15.7454 37.7426 10.2949 33.724 6.27629C29.7054 2.25765 24.2549 1.02188e-06 18.5717 0C12.8885 -1.02188e-06 7.43807 2.25764 3.41943 6.27628L10.4905 13.3473C11.6063 14.4631 13.4081 14.4074 14.8276 13.7181C15.9836 13.1568 17.2622 12.8571 18.5717 12.8571C20.845 12.8571 23.0252 13.7602 24.6326 15.3677C26.2401 16.9751 27.1431 19.1553 27.1431 21.4286C27.1431 22.7381 26.8435 24.0167 26.2822 25.1727C25.5929 26.5922 25.5372 28.394 26.6529 29.5098L33.724 36.5809Z" fill="#97360C"/><path d="M30 40H19.5098C17.9943 40 16.5408 39.398 15.4692 38.3263L1.67368 24.5308C0.60204 23.4592 0 22.0057 0 20.4902V10L30 40Z" fill="#E37F0D"/><path d="M10.7143 39.9999H4.28571C1.91878 39.9999 0 38.0812 0 35.7142V29.2856L10.7143 39.9999Z" fill="#FFBE33"/></g>
        <g id="logotype" transform="translate(46, 1)"><path fill="#5a3502" d="M20.49 33L16.95 33Q15.26 33 13.78 32.36Q12.29 31.72 11.17 30.60Q10.05 29.48 9.41 27.99Q8.77 26.51 8.77 24.81L8.77 24.81L8.77 19.38L6.50 19.38L6.50 14.73L8.77 14.73L8.77 7.42L13.42 7.42L13.42 14.73L20.49 14.73L20.49 19.38L13.42 19.38L13.42 24.81Q13.42 25.55 13.69 26.19Q13.96 26.83 14.44 27.31Q14.92 27.79 15.57 28.07Q16.22 28.35 16.95 28.35L16.95 28.35L20.49 28.35L20.49 33ZM27.77 22.92L27.77 33L23.11 33L23.11 14.70L24.23 14.70L25.77 16.87Q26.90 15.84 28.34 15.29Q29.77 14.73 31.31 14.73L31.31 14.73L35.43 14.73L35.43 19.38L31.31 19.38Q30.58 19.38 29.93 19.65Q29.28 19.93 28.80 20.40Q28.32 20.88 28.05 21.53Q27.77 22.18 27.77 22.92L27.77 22.92ZM54.98 14.73L54.98 33L53.85 33L52.04 30.49Q51.37 31.09 50.63 31.61Q49.89 32.13 49.07 32.51Q48.25 32.90 47.38 33.12Q46.52 33.34 45.63 33.34L45.63 33.34Q43.70 33.34 42.00 32.69Q40.30 32.04 39.03 30.80Q37.75 29.56 37.02 27.77Q36.28 25.98 36.28 23.69L36.28 23.69Q36.28 21.55 37.02 19.76Q37.75 17.98 39.03 16.70Q40.30 15.41 42.00 14.71Q43.70 14.00 45.63 14.00L45.63 14.00Q46.52 14.00 47.39 14.22Q48.26 14.44 49.08 14.83Q49.90 15.23 50.65 15.76Q51.39 16.29 52.04 16.90L52.04 16.90L53.85 14.73L54.98 14.73ZM50.28 23.69L50.28 23.69Q50.28 22.73 49.91 21.83Q49.54 20.93 48.91 20.24Q48.28 19.55 47.43 19.13Q46.59 18.71 45.63 18.71L45.63 18.71Q44.67 18.71 43.83 19.04Q42.98 19.36 42.36 19.99Q41.73 20.63 41.38 21.56Q41.02 22.49 41.02 23.69L41.02 23.69Q41.02 24.88 41.38 25.81Q41.73 26.75 42.36 27.38Q42.98 28.01 43.83 28.33Q44.67 28.66 45.63 28.66L45.63 28.66Q46.59 28.66 47.43 28.24Q48.28 27.82 48.91 27.13Q49.54 26.44 49.91 25.54Q50.28 24.64 50.28 23.69ZM68.41 33L63.73 33L56.76 14.70L62.07 14.70L66.07 26.11L70.05 14.70L75.38 14.70L68.41 33ZM92.66 17.98L83.91 28.52Q84.19 28.61 84.46 28.63Q84.73 28.66 85.01 28.66L85.01 28.66Q85.69 28.66 86.32 28.47Q86.95 28.28 87.51 27.93Q88.07 27.58 88.50 27.08Q88.94 26.57 89.21 25.96L89.21 25.96L92.63 29.39Q91.98 30.32 91.13 31.05Q90.29 31.79 89.30 32.30Q88.32 32.81 87.24 33.08Q86.15 33.34 85.01 33.34L85.01 33.34Q83.08 33.34 81.37 32.62Q79.67 31.91 78.40 30.62Q77.13 29.34 76.39 27.57Q75.66 25.81 75.66 23.69L75.66 23.69Q75.66 21.52 76.39 19.72Q77.13 17.93 78.40 16.66Q79.67 15.40 81.37 14.70Q83.08 14.00 85.01 14.00L85.01 14.00Q86.15 14.00 87.25 14.27Q88.34 14.54 89.32 15.06Q90.30 15.57 91.16 16.31Q92.01 17.06 92.66 17.98L92.66 17.98ZM80.87 26.11L86.31 18.90Q85.98 18.78 85.66 18.75Q85.35 18.71 85.01 18.71L85.01 18.71Q84.05 18.71 83.20 19.06Q82.36 19.41 81.73 20.06Q81.11 20.71 80.75 21.63Q80.39 22.54 80.39 23.69L80.39 23.69Q80.39 23.94 80.42 24.27Q80.44 24.59 80.50 24.93Q80.56 25.26 80.65 25.57Q80.73 25.87 80.87 26.11L80.87 26.11ZM99.70 7.42L99.70 33L95.00 33L95.00 7.42L99.70 7.42ZM102.32 15.84L102.32 15.84Q102.32 14.32 102.90 12.99Q103.48 11.65 104.48 10.66Q105.48 9.66 106.81 9.07Q108.15 8.49 109.67 8.49L109.67 8.49L120.91 8.49L120.91 13.40L109.67 13.40Q109.15 13.40 108.71 13.59Q108.27 13.77 107.93 14.11Q107.60 14.44 107.41 14.88Q107.22 15.33 107.22 15.84L107.22 15.84Q107.22 16.35 107.41 16.81Q107.60 17.26 107.93 17.59Q108.27 17.93 108.71 18.11Q109.15 18.30 109.67 18.30L109.67 18.30L114.57 18.30Q116.09 18.30 117.43 18.88Q118.78 19.45 119.78 20.45Q120.78 21.45 121.35 22.79Q121.92 24.13 121.92 25.65L121.92 25.65Q121.92 27.17 121.35 28.51Q120.78 29.84 119.78 30.84Q118.78 31.84 117.43 32.42Q116.09 33 114.57 33L114.57 33L103.69 33L103.69 28.10L114.57 28.10Q115.08 28.10 115.53 27.91Q115.97 27.72 116.31 27.39Q116.64 27.05 116.83 26.61Q117.02 26.16 117.02 25.65L117.02 25.65Q117.02 25.14 116.83 24.69Q116.64 24.25 116.31 23.92Q115.97 23.58 115.53 23.40Q115.08 23.21 114.57 23.21L114.57 23.21L109.67 23.21Q108.15 23.21 106.81 22.63Q105.48 22.05 104.48 21.05Q103.48 20.05 102.90 18.70Q102.32 17.36 102.32 15.84ZM129.17 31.77L129.17 39.97L124.47 39.97L124.47 14.70L125.59 14.70L127.46 16.90Q128.09 16.30 128.84 15.77Q129.59 15.24 130.41 14.86Q131.22 14.47 132.09 14.25Q132.96 14.03 133.85 14.03L133.85 14.03Q135.78 14.03 137.48 14.72Q139.18 15.41 140.45 16.68Q141.73 17.94 142.46 19.73Q143.20 21.52 143.20 23.69L143.20 23.69Q143.20 25.94 142.46 27.74Q141.73 29.55 140.45 30.80Q139.18 32.06 137.48 32.73Q135.78 33.39 133.85 33.39L133.85 33.39Q133.23 33.39 132.63 33.26Q132.02 33.12 131.43 32.89Q130.84 32.66 130.27 32.37Q129.70 32.08 129.17 31.77L129.17 31.77ZM138.51 23.69L138.51 23.69Q138.51 22.52 138.15 21.60Q137.78 20.68 137.15 20.04Q136.52 19.40 135.66 19.05Q134.81 18.71 133.85 18.71L133.85 18.71Q132.89 18.71 132.05 19.05Q131.20 19.40 130.57 20.04Q129.94 20.68 129.57 21.60Q129.20 22.52 129.20 23.69L129.20 23.69Q129.20 24.80 129.57 25.72Q129.94 26.64 130.57 27.29Q131.20 27.94 132.05 28.30Q132.89 28.66 133.85 28.66L133.85 28.66Q134.81 28.66 135.66 28.30Q136.52 27.94 137.15 27.29Q137.78 26.64 138.15 25.72Q138.51 24.80 138.51 23.69ZM163.50 14.73L163.50 33L162.37 33L160.56 30.49Q159.89 31.09 159.15 31.61Q158.41 32.13 157.59 32.51Q156.77 32.90 155.90 33.12Q155.04 33.34 154.15 33.34L154.15 33.34Q152.22 33.34 150.52 32.69Q148.82 32.04 147.55 30.80Q146.27 29.56 145.54 27.77Q144.80 25.98 144.80 23.69L144.80 23.69Q144.80 21.55 145.54 19.76Q146.27 17.98 147.55 16.70Q148.82 15.41 150.52 14.71Q152.22 14.00 154.15 14.00L154.15 14.00Q155.04 14.00 155.91 14.22Q156.78 14.44 157.60 14.83Q158.42 15.23 159.17 15.76Q159.91 16.29 160.56 16.90L160.56 16.90L162.37 14.73L163.50 14.73ZM158.80 23.69L158.80 23.69Q158.80 22.73 158.43 21.83Q158.07 20.93 157.43 20.24Q156.80 19.55 155.95 19.13Q155.11 18.71 154.15 18.71L154.15 18.71Q153.19 18.71 152.35 19.04Q151.50 19.36 150.88 19.99Q150.26 20.63 149.90 21.56Q149.54 22.49 149.54 23.69L149.54 23.69Q149.54 24.88 149.90 25.81Q150.26 26.75 150.88 27.38Q151.50 28.01 152.35 28.33Q153.19 28.66 154.15 28.66L154.15 28.66Q155.11 28.66 155.95 28.24Q156.80 27.82 157.43 27.13Q158.07 26.44 158.43 25.54Q158.80 24.64 158.80 23.69ZM171.72 22.92L171.72 33L167.05 33L167.05 14.70L168.18 14.70L169.72 16.87Q170.85 15.84 172.28 15.29Q173.72 14.73 175.26 14.73L175.26 14.73L179.38 14.73L179.38 19.38L175.26 19.38Q174.52 19.38 173.87 19.65Q173.22 19.93 172.75 20.40Q172.27 20.88 171.99 21.53Q171.72 22.18 171.72 22.92L171.72 22.92ZM186.25 30.66L186.25 33L181.55 33L181.55 7.42L186.25 7.42L186.25 23.55L193.20 14.73L198.57 14.73L192.50 22.35L198.57 33L193.20 33L189.49 26.35L186.25 30.66Z"/></g>
        
      </svg>
    